<?xml version="1.0" encoding="UTF-8"?>
<svg width="100%" height="100%" viewBox="0 0 512 512" xmlns="http://www.w3.org/2000/svg">
	<circle cx="256" cy="256" r="252.28986" style="fill:#a6a6a6;stroke:#555;stroke-width:7.5;stroke-miterlimit:10"/>
	<g transform="matrix(7.4202899,0,0,7.4202899,-218.89855,-83.107253)">
		<path style="fill:#555" d="m67.7 35c0-3.9-.4-5.8-4.8-8l-7.8 4c0 0-.2 18.7-.2 22.8.0 4.1.7 6.4 4.3 8.7l8.7-4.2c0 0-.2-18.4-.2-23.3zm-4.3 21.5c0 1.3-.3 2.7-2 2.7-2 0-2.7-3-2.7-5.1.0-2.1.2-21.2.2-22.3.0-.7.1-2.1 1.6-2.1 1.5.0 3.1 1.4 3.1 3.6.0 2.4-.2 21.1-.2 23.2z"/>
		<path style="fill:#555" d="m85.1 35c0-3.9-.4-5.8-4.8-8l-7.8 4c0 0-.2 18.7-.2 22.8.0 4.1.7 6.4 4.3 8.7l8.7-4.2c0 0-.2-18.4-.2-23.3zm-4.3 21.5c0 1.3-.3 2.7-2 2.7-2 0-2.7-3-2.7-5.1.0-2.1.2-21.2.2-22.3.0-.7.1-2.1 1.6-2.1 1.5.0 3.1 1.4 3.1 3.6.0 2.4-.2 21.1-.2 23.2z"/>
		<path style="fill:#555" d="M50 27 43 30.7V32.2L45.8 30.7V59.4L42.6 61.1v1.5L52.2 57.6V56L50 57.2z"/>
	</g>
</svg>